<svg xmlns="http://www.w3.org/2000/svg" viewBox="0 0 48.96 56.77"><defs><style>.cls-1{fill:#0f1134;}.cls-2{fill:#fff;}</style></defs><title>breed</title><g id="Layer_4" data-name="Layer 4"><path class="cls-1" d="M49.38,61S71.94,61.47,68,50,43.34,39.6,43.34,39.6,24.91,37.26,28.79,28.87c4.85-7.44,25.41-10.76,36.08-.51,8.42,7.46,10.94,16.55,9.53,26.51S62.6,73.64,59.34,74.4c0,0-3.16-1.88,3.32-9.63C62.66,64.77,51.87,68.65,49.38,61Z" transform="translate(-26.4 -21.36)"/><path class="cls-2" d="M50,26s1.79,6.64-1.6,11.66c0,0,20.67.56,22.17,14.64,0,0,4.7-14.84-18.31-21.19C52.26,31.13,52.34,26.76,50,26Z" transform="translate(-26.4 -21.36)"/><path class="cls-1" d="M43.89,41.28l5.2.44s2.63,3.79,1.31,7.79C50.4,49.51,45.32,48.72,43.89,41.28Z" transform="translate(-26.4 -21.36)"/><path class="cls-1" d="M54.62,21.55s18-2.87,20.74,13.41a6,6,0,0,0-4-.9A24.48,24.48,0,0,0,54.62,21.55Z" transform="translate(-26.4 -21.36)"/><circle class="cls-2" cx="14.87" cy="6.8" r="2.23"/><path class="cls-1" d="M30.55,63.49c-.35,3.25-4.15,4-4.15,4s1.25,2.9,3.8,2.87S34,67.45,34,67.45C32.44,67.7,30.55,63.49,30.55,63.49Z" transform="translate(-26.4 -21.36)"/><path class="cls-1" d="M43.33,67.45c-1.57.25-3.45-4-3.45-4-.35,3.25-4.15,4-4.15,4s1.25,2.9,3.8,2.87S43.33,67.45,43.33,67.45Z" transform="translate(-26.4 -21.36)"/><path class="cls-1" d="M52.66,67.45c-1.57.25-3.45-4-3.45-4-.35,3.25-4.15,4-4.15,4s1.25,2.9,3.8,2.87S52.66,67.45,52.66,67.45Z" transform="translate(-26.4 -21.36)"/><path class="cls-1" d="M38.36,72.49c-1.56.25-3.45-4-3.45-4-.35,3.26-4.14,4-4.14,4a5.81,5.81,0,0,0,.52.91,27.2,27.2,0,0,0,3.4,1.95C37.16,75.23,38.36,72.49,38.36,72.49Z" transform="translate(-26.4 -21.36)"/><path class="cls-1" d="M44.24,68.53c-.35,3.26-4.15,4-4.15,4s1.25,2.9,3.8,2.87,3.8-2.87,3.8-2.87C46.13,72.74,44.24,68.53,44.24,68.53Z" transform="translate(-26.4 -21.36)"/><path class="cls-1" d="M53.57,68.53c-.35,3.26-4.15,4-4.15,4s1.25,2.9,3.8,2.87S57,72.49,57,72.49C55.45,72.74,53.57,68.53,53.57,68.53Z" transform="translate(-26.4 -21.36)"/><path class="cls-1" d="M39.88,73.7a4.06,4.06,0,0,1-1.87,3,27.21,27.21,0,0,0,5.21,1.19c.07-.13.11-.22.11-.22C41.76,77.91,39.88,73.7,39.88,73.7Z" transform="translate(-26.4 -21.36)"/><path class="cls-1" d="M49.21,73.7c-.35,3.26-4.15,4-4.15,4a3.5,3.5,0,0,0,.22.42c.52,0,1,0,1.58,0a27.73,27.73,0,0,0,5.35-.52C50.76,77.15,49.21,73.7,49.21,73.7Z" transform="translate(-26.4 -21.36)"/></g></svg>