<!--?xml version="1.0" encoding="utf-8"?-->
<!-- Generator: Adobe Illustrator 18.1.1, SVG Export Plug-In . SVG Version: 6.00 Build 0)  -->

<svg version="1.1" id="_x32_" xmlns="http://www.w3.org/2000/svg" xmlns:xlink="http://www.w3.org/1999/xlink" x="0px" y="0px" viewBox="0 0 512 512" style="width: 256px; height: 256px; opacity: 1;" xml:space="preserve">
<style type="text/css">
	.st0{fill:#4B4B4B;}
</style>
<g>
	<path class="st0" d="M220.834,483.752c-56.956,0.02-108.496-10.104-144.886-25.94c-18.206-7.873-32.559-17.19-41.905-26.815
		c-9.396-9.706-13.647-19.151-13.657-28.468c0.01-5.923,1.682-11.726,5.266-17.758c3.584-6.012,9.138-12.154,16.593-18.066
		c4.41-3.494,5.156-9.904,1.652-14.324c-3.493-4.4-9.903-5.146-14.312-1.643c-8.949,7.097-16.255,14.921-21.431,23.591
		C2.976,382.97-0.01,392.575,0,402.529c-0.01,15.926,7.525,30.528,19.45,42.692c17.966,18.335,46.046,32.658,80.745,42.891
		c34.709,10.172,76.106,16.016,120.639,16.026c5.634,0,10.192-4.559,10.192-10.192C231.026,488.31,226.468,483.752,220.834,483.752z
		"></path>
	<path class="st0" d="M251.411,147.524v-30.288c-9.784,1.751-19.997,2.747-30.578,2.757c-10.59-0.01-20.783-1.065-30.578-2.818
		v30.349c9.616,1.971,19.888,3.057,30.578,3.046C231.524,150.58,241.797,149.484,251.411,147.524z"></path>
	<path class="st0" d="M251.411,96.56V72.184c0-14.87-13.686-26.944-30.578-26.944s-30.578,12.074-30.578,26.944V96.56
		c9.616,1.971,19.888,3.057,30.578,3.046C231.524,99.617,241.797,98.522,251.411,96.56z"></path>
	<path class="st0" d="M251.411,168.198c-9.784,1.751-19.997,2.747-30.578,2.757c-10.59-0.01-20.783-1.065-30.578-2.817v20.814
		c0,80.834-96.83,80.834-96.83,220.056c0,0,40.77,26.945,127.408,26.945c86.637,0,127.408-26.945,127.408-26.945
		c0-139.222-96.83-139.222-96.83-220.056V168.198z"></path>
	<path class="st0" d="M501.808,7.863c-5.634,0-10.193,4.559-10.193,10.193c-0.019,91.504-19.957,159.479-40.263,221.71
		c-20.256,62.151-41.248,118.788-41.278,185.995c0,5.634,4.559,10.192,10.193,10.192c5.634,0,10.193-4.559,10.193-10.192
		c-0.03-62.748,19.748-116.956,40.263-179.666C491.187,183.467,512.02,112.567,512,18.056C512,12.422,507.442,7.863,501.808,7.863z"></path>
</g>
</svg>
