<svg xmlns="http://www.w3.org/2000/svg" viewBox="0 0 52.16 54.06"><defs><style>.cls-1{fill:none;}.cls-1,.cls-2,.cls-4{stroke:#111234;stroke-miterlimit:10;}.cls-1,.cls-4{stroke-width:0.74px;}.cls-2,.cls-4{fill:#0f1134;}.cls-2{stroke-width:0.63px;}.cls-3{fill:#111234;}</style></defs><title>fishing</title><g id="Layer_5" data-name="Layer 5"><path class="cls-1" d="M33.16,58.77s12.92-23.89,35.9-38c0,0-1.06,4.52-2.78,6.09a6.21,6.21,0,0,1-6.08,1.4s1.09,2.88-2.35,6S52,36.4,52,36.4a9.49,9.49,0,0,1-1.55,6.67c-2.2,2.92-5,4.75-7.81,1.84" transform="translate(-23.78 -20.01)"/><rect class="cls-2" x="27.97" y="57.92" width="2.77" height="16.07" transform="translate(12.31 -25.93) rotate(29.35)"/><circle class="cls-3" cx="15.79" cy="38.07" r="1.5"/><circle class="cls-1" cx="15.79" cy="38.07" r="3.97"/><line class="cls-1" x1="21.51" y1="26.36" x2="19.75" y2="38.32"/><path class="cls-1" d="M68.84,21.62s6.4,1.95,6.65,8.67A51.41,51.41,0,0,1,73.67,44.2" transform="translate(-23.78 -20.01)"/><ellipse class="cls-4" cx="72.83" cy="46.83" rx="2.72" ry="1.6" transform="translate(-11.09 89.11) rotate(-78.75)"/><path class="cls-1" d="M72,49.4l-.34,7.27s0,4.61,2.35,1.93.21-3.09.21-3.09" transform="translate(-23.78 -20.01)"/><path class="cls-1" d="M66.56,58.77s-12.92-23.89-35.9-38c0,0,1.06,4.52,2.78,6.09a6.22,6.22,0,0,0,6.09,1.4s-1.1,2.88,2.34,6,5.88,2.12,5.88,2.12a9.49,9.49,0,0,0,1.55,6.67c2.2,2.92,5,4.75,7.81,1.84" transform="translate(-23.78 -20.01)"/><rect class="cls-2" x="68.98" y="57.92" width="2.77" height="16.07" transform="translate(140.24 68.96) rotate(150.65)"/><circle class="cls-3" cx="36.37" cy="38.07" r="1.5"/><circle class="cls-1" cx="36.37" cy="38.07" r="3.97"/><line class="cls-1" x1="30.64" y1="26.36" x2="32.41" y2="38.32"/><path class="cls-1" d="M30.88,21.62s-6.4,1.95-6.65,8.67A51.41,51.41,0,0,0,26.05,44.2" transform="translate(-23.78 -20.01)"/><ellipse class="cls-4" cx="26.89" cy="46.83" rx="1.6" ry="2.72" transform="translate(-32.4 -13.86) rotate(-11.25)"/><path class="cls-1" d="M27.69,49.4,28,56.67s0,4.61-2.34,1.93-.22-3.09-.22-3.09" transform="translate(-23.78 -20.01)"/></g></svg>