<!--?xml version="1.0" encoding="utf-8"?-->
<!-- Generator: Adobe Illustrator 18.1.1, SVG Export Plug-In . SVG Version: 6.00 Build 0)  -->

<svg version="1.1" id="_x32_" xmlns="http://www.w3.org/2000/svg" xmlns:xlink="http://www.w3.org/1999/xlink" x="0px" y="0px" viewBox="0 0 512 512" style="width: 256px; height: 256px; opacity: 1;" xml:space="preserve">
<style type="text/css">
	.st0{fill:#4B4B4B;}
</style>
<g>
	<rect x="193.606" y="226.527" class="st0" width="17.388" height="24.195" style="fill: rgb(0, 0, 0);"></rect>
	<rect x="241.07" y="350.318" class="st0" width="20.157" height="90.188" style="fill: rgb(0, 0, 0);"></rect>
	<rect x="181.485" y="275.283" class="st0" width="15.169" height="26.557" style="fill: rgb(0, 0, 0);"></rect>
	<rect x="214.952" y="275.283" class="st0" width="15.177" height="26.557" style="fill: rgb(0, 0, 0);"></rect>
	<rect x="155.414" y="350.318" class="st0" width="20.157" height="90.188" style="fill: rgb(0, 0, 0);"></rect>
	<rect x="100.658" y="380.681" class="st0" width="19.838" height="32.47" style="fill: rgb(0, 0, 0);"></rect>
	<rect x="229.403" y="226.527" class="st0" width="17.396" height="24.195" style="fill: rgb(0, 0, 0);"></rect>
	<rect x="57.064" y="380.681" class="st0" width="19.846" height="32.47" style="fill: rgb(0, 0, 0);"></rect>
	<rect x="301.022" y="226.527" class="st0" width="17.388" height="24.195" style="fill: rgb(0, 0, 0);"></rect>
	<rect x="198.243" y="350.318" class="st0" width="20.156" height="90.188" style="fill: rgb(0, 0, 0);"></rect>
	<rect x="391.513" y="380.681" class="st0" width="19.846" height="32.47" style="fill: rgb(0, 0, 0);"></rect>
	<rect x="435.107" y="380.681" class="st0" width="19.838" height="32.47" style="fill: rgb(0, 0, 0);"></rect>
	<path class="st0" d="M487.486,295.743H387.459c-3.471-5.625-8.339-10.302-14.116-13.525v-0.455
		c3.336-5.61,5.171-12.082,5.171-18.752c0-10.725-4.612-20.396-11.954-27.124c4.676-6.256,7.461-13.988,7.461-22.303
		c0-9.951-4.014-19.248-10.669-26.086c-5.722-37.018-30.108-68.252-64.11-82.942c0.43-1.996,0.654-4.062,0.654-6.185
		c0-6.926-2.514-13.206-6.536-18.233c0.168-1.309,0.399-2.609,0.399-3.966V63.396c0-4.142-0.798-8.188-2.418-12.121l-6.256-15.01
		C280.162,24.51,268.744,16.913,256,16.913c-12.736,0-24.147,7.597-29.094,19.399l-6.272,15.066
		c-1.58,3.83-2.378,7.876-2.378,12.018v12.775c0,1.357,0.231,2.65,0.399,3.966c-4.03,5.02-6.544,11.307-6.544,18.233
		c0,2.123,0.224,4.19,0.662,6.185c-34.002,14.69-58.388,45.915-64.118,82.942c-6.656,6.838-10.67,16.135-10.67,26.086
		c0,8.314,2.778,16.047,7.462,22.303c-7.341,6.728-11.954,16.399-11.954,27.124c0,6.679,1.835,13.151,5.179,18.769v0.43
		c-5.785,3.232-10.661,7.908-14.124,13.533H24.514C10.972,295.743,0,306.716,0,320.257v150.316
		c0,13.542,10.972,24.514,24.514,24.514h462.972c13.542,0,24.514-10.972,24.514-24.514V320.257
		C512,306.716,501.028,295.743,487.486,295.743z M242.77,63.396c0-0.926,0.183-1.843,0.534-2.697l6.232-14.962
		c1.094-2.609,3.639-4.309,6.464-4.309c2.833,0,5.386,1.7,6.48,4.309l6.232,14.962c0.351,0.854,0.534,1.772,0.534,2.697v12.775
		c0,3.871-3.144,7.007-7.006,7.007h-12.464c-3.878,0-7.006-3.136-7.006-7.007V63.396z M487.486,338.292v12.026v90.188v15.042v15.026
		H24.514v-15.026v-15.042v-90.188v-12.026v-18.035h118.819v-4.292c0-7.797,6.328-14.125,14.132-14.125h5.722v-28.854
		c-3.128-2.227-5.179-5.849-5.179-9.975c0-6.791,5.506-12.289,12.289-12.289h4.9v-24.227c-7.03-0.136-12.696-5.857-12.696-12.911
		c0-5.929,4.006-10.869,9.44-12.409c1.42-39.045,29.43-71.3,66.472-79.184c-1.078-0.886-1.788-2.21-1.788-3.719
		c0-2.657,2.17-4.82,4.836-4.82h0.774v-10.262h-0.774c-2.666,0-4.836-2.155-4.836-4.82c0-2.664,2.17-4.819,4.836-4.819h29.102
		c2.658,0,4.82,2.155,4.82,4.819c0,2.666-2.163,4.82-4.82,4.82h-0.782v10.262h0.782c2.658,0,4.82,2.163,4.82,4.82
		c0,1.509-0.71,2.833-1.78,3.719c37.034,7.884,65.051,40.138,66.464,79.184c5.427,1.54,9.44,6.48,9.44,12.409
		c0,7.054-5.658,12.775-12.688,12.911v24.227h4.9c6.783,0,12.282,5.498,12.282,12.289c0,4.126-2.059,7.756-5.171,9.983v28.846h5.721
		c7.796,0,14.116,6.328,14.116,14.125v4.292h118.819V338.292z" style="fill: rgb(0, 0, 0);"></path>
	<rect x="326.725" y="350.318" class="st0" width="20.157" height="90.188" style="fill: rgb(0, 0, 0);"></rect>
	<rect x="315.362" y="275.283" class="st0" width="15.161" height="26.557" style="fill: rgb(0, 0, 0);"></rect>
	<rect x="281.887" y="275.283" class="st0" width="15.177" height="26.557" style="fill: rgb(0, 0, 0);"></rect>
	<rect x="248.42" y="275.283" class="st0" width="15.177" height="26.557" style="fill: rgb(0, 0, 0);"></rect>
	<rect x="265.216" y="226.527" class="st0" width="17.396" height="24.195" style="fill: rgb(0, 0, 0);"></rect>
	<rect x="283.898" y="350.318" class="st0" width="20.157" height="90.188" style="fill: rgb(0, 0, 0);"></rect>
</g>
</svg>
