<svg xmlns="http://www.w3.org/2000/svg" viewBox="0 0 87.51 87.51"><defs><style>.cls-1{fill:#111234;}.cls-2{fill:none;stroke:#111234;stroke-miterlimit:10;stroke-width:3px;}</style></defs><title>partnership</title><g id="Layer_6" data-name="Layer 6"><path class="cls-1" d="M35,34.21s1.23,1.51,5.75,1.66c0,0-4.15,5.32-3.37,7.28s6.49,1,8.9-3.4l2.25-.58s10.32,5,17.87,11.6C68,53,66.16,55,63.84,54.09l-7.91-4.85a1.28,1.28,0,0,0-1.43-.3c-.75.4.66,1.25.66,1.25l7.77,4.62s.43,3.59-2.87,2.71L53,53.44s-1.59-.13-.54,1.05l6.83,3.8s.54,3.19-3.29,2.52L50.45,58.1s-1.44-.24-.51.89l5.49,2.59S54.09,64,51.82,63.49l-4.29-1a.43.43,0,0,1-.29-.64c.68-1.17,1.8-4-2.6-5.08,0,0,0-3.72-3.44-3.86,0,0,.39-2.52-1.7-3.54A2.92,2.92,0,0,0,35.29,51s-1.88-4.26-5.23-1.37l-2.33-2.81Z" transform="translate(-5.42 -2.63)"/><path class="cls-1" d="M38.57,42.72S42.18,44,45.5,39l2.94-1.18s11.43,5.76,18.1,11.87a4.64,4.64,0,0,0,2.58-1.76c1.15-1.5,1.5-1.21,1.5-1.21l-7.18-12.6s-2.49,1-4.12.28S51.4,32,43.38,34.21A40.48,40.48,0,0,1,40.57,38C39.63,39,37.72,41.68,38.57,42.72Z" transform="translate(-5.42 -2.63)"/><rect class="cls-1" x="38.23" y="53.63" width="4.01" height="8.25" rx="1.82" transform="translate(37.76 -15.2) rotate(37.26)"/><rect class="cls-1" x="34.51" y="49.65" width="4.01" height="9.67" rx="1.82" transform="translate(35.02 -13.61) rotate(37.26)"/><rect class="cls-1" x="42.13" y="57.76" width="4.01" height="6.43" rx="1.82" transform="translate(40.51 -16.9) rotate(37.26)"/><rect class="cls-1" x="29.85" y="49.55" width="4.01" height="5.34" rx="1.82" transform="translate(32.7 -11.26) rotate(37.26)"/><rect class="cls-1" x="25.52" y="28.81" width="5.36" height="19.07" transform="translate(17.53 -11.59) rotate(30)"/><rect class="cls-1" x="67.47" y="28.95" width="5.36" height="19.07" transform="translate(144.72 34.1) rotate(150)"/><circle class="cls-2" cx="43.76" cy="43.76" r="42.26"/></g></svg>