<svg xmlns="http://www.w3.org/2000/svg" viewBox="0 0 66.6 85.25"><defs><style>.cls-1{fill:none;stroke:#121334;stroke-miterlimit:10;stroke-width:5.82px;}.cls-2{fill:#0f1134;}</style></defs><title>protect</title><g id="Layer_2" data-name="Layer 2"><path class="cls-1" d="M52.72,91.45S33,79.29,30.88,78a22.23,22.23,0,0,1-8.52-17.2V23.07a5,5,0,0,1,3.17-4.61L52.72,12h.05L80,18.46a5,5,0,0,1,3.17,4.61V60.84A22.22,22.22,0,0,1,74.6,78c-2.07,1.25-21.83,13.41-21.83,13.41Z" transform="translate(-19.44 -9.11)"/><path class="cls-2" d="M77.45,59.14V28.43a4,4,0,0,0-2.58-3.74L52.76,19.45h0V84h0s16.07-9.88,17.76-10.9A18.06,18.06,0,0,0,77.45,59.14Z" transform="translate(-19.44 -9.11)"/></g></svg>