<svg xmlns="http://www.w3.org/2000/svg" viewBox="0 0 87.64 87.64"><defs><style>.cls-1{fill:#111234;}.cls-2{fill:#121334;}.cls-3{fill:none;stroke:#121334;stroke-miterlimit:10;stroke-width:3px;}</style></defs><title>public</title><g id="Layer_7" data-name="Layer 7"><path class="cls-1" d="M43.44,68.3l1.85-1.41.63-7,4.66-3.2s3.28-.63,2.08,2.27l-2.55,1.91A7.38,7.38,0,0,0,50,66c.88,3.11,4.35,6.57,7.11,7.34l-7.91,4.77Z" transform="translate(-7.36 -6.56)"/><rect class="cls-1" x="52.63" y="56.93" width="3.35" height="9.03" rx="1.44" transform="translate(67.73 -24.44) rotate(56.15)"/><rect class="cls-1" x="58.41" y="66.11" width="3.35" height="7.17" rx="1.44" transform="translate(77.14 -25.59) rotate(56.15)"/><rect class="cls-1" x="55.87" y="62.74" width="3.35" height="9.26" rx="1.44" transform="translate(74.08 -24.51) rotate(56.15)"/><rect class="cls-1" x="54.05" y="59.53" width="3.35" height="9.99" rx="1.44" transform="translate(70.92 -24.26) rotate(56.15)"/><rect class="cls-1" x="40.94" y="68.89" width="4.55" height="11.93" transform="translate(-39 25.07) rotate(-30)"/><polygon class="cls-2" points="42.01 44.57 37.89 46.84 40.2 51.02 44.28 48.67 42.01 44.57"/><path class="cls-2" d="M61,72.05,56.87,74.4l.11.19a2.35,2.35,0,1,0,4.11-2.28Z" transform="translate(-7.36 -6.56)"/><path class="cls-2" d="M38,45.38l-3-4.85s-1.15-1.82,1.5-3.44c2.37-1.46,9.06-5.83,10.44-6.73a3.17,3.17,0,0,0,.49-.4c.89-.88,4-4.12,3.84-6.15-.22-2.36,0-6,2.56-3.19L68,45.38s1.21,3.24-2.23,2.08c-2-2.08-6.16-2.46-9.55-.93s-11,5.91-11,5.91a2.24,2.24,0,0,1-3.25,0Z" transform="translate(-7.36 -6.56)"/><path class="cls-2" d="M59.91,28.78l4.65,7.77a4.53,4.53,0,1,0-4.65-7.77Z" transform="translate(-7.36 -6.56)"/><path class="cls-2" d="M34.58,48.65a3.07,3.07,0,0,0,4.21,1.08l-3.13-5.3A3.08,3.08,0,0,0,34.58,48.65Z" transform="translate(-7.36 -6.56)"/><circle class="cls-3" cx="43.82" cy="43.82" r="42.32"/></g></svg>